<?xml version="1.0" encoding="utf-8"?>
<!-- Generator: Adobe Illustrator 24.0.1, SVG Export Plug-In . SVG Version: 6.00 Build 0)  -->
<svg version="1.1" id="Livello_1" xmlns="http://www.w3.org/2000/svg" xmlns:xlink="http://www.w3.org/1999/xlink" x="0px" y="0px"
	 viewBox="0 0 300 108" style="enable-background:new 0 0 300 108;" xml:space="preserve">
<style type="text/css">
	.st0{fill:#FBF3E6;}
</style>
<g>
	<g>
		<path class="st0" d="M144,36.9l-0.3-0.3c-0.9-0.1-1.8-0.2-2.6-0.2s-1.8,0-2.7,0c-0.9,0-1.8,0.1-2.6,0.2c-0.8,0.1-1.7,0.2-2.4,0.3
			c-0.1,0.4-0.1,0.8-0.2,1.3c-0.1,0.4-0.1,0.9-0.1,1.4c-0.1,1-0.1,1.9,0,2.9c0,1,0.1,2,0.1,3c0.1,1,0.2,2,0.3,2.9l0.3,0.3
			c1.7,0.2,3.4,0.2,5.1,0.1c0.8,0,1.7-0.1,2.5-0.1s1.7-0.1,2.5-0.2l0.3-0.3c0.1-1,0.2-1.9,0.3-2.8s0.1-1.9,0.1-2.8
			c0-0.9,0-1.9-0.1-2.8C144.5,38.8,144.3,37.9,144,36.9z M138.9,47.8c-1.6,0-3.1,0-4.7,0.3c0.1-0.8,0.1-1.6,0.2-2.4
			c0-0.9,0-1.8,0-2.7c0-0.9-0.1-1.8-0.1-2.7c-0.1-0.5-0.1-0.9-0.2-1.4c-0.1-0.5-0.1-1-0.2-1.5c0.9,0.1,1.8,0.1,2.6,0.2
			c0.8,0,1.7,0.1,2.5,0.1c0.8,0,1.6,0,2.4-0.1c0.7,0,1.3-0.1,2-0.2c-0.2,0.8-0.3,1.7-0.3,2.5c0,0.9,0,1.9,0,2.8
			c0,0.9,0.1,1.9,0.2,2.8c0.1,0.8,0.2,1.7,0.3,2.5c-0.7,0-1.4-0.1-2.2-0.1C140.6,47.8,139.7,47.8,138.9,47.8z"/>
	</g>
	<g>
		<path class="st0" d="M155.9,36.7l-0.3-0.3c-1.6-0.1-3.3-0.1-5-0.1c-0.8,0-1.6,0.1-2.4,0.1c-0.8,0.1-1.6,0.1-2.3,0.2
			c-0.2,0.8-0.2,1.7-0.3,2.7c0,0.5,0,1,0,1.5s0,1,0,1.5c0,1,0.1,2,0.1,3c0.1,1,0.1,2,0.3,2.9l0.3,0.3c1.6,0.1,3.2,0.1,4.8,0
			c0.8,0,1.6,0,2.4-0.1c0.8,0,1.6-0.1,2.4-0.1l0.3-0.3c0.2-1,0.3-1.9,0.3-2.8c0.1-0.9,0.1-1.9,0.1-2.8c0-0.9,0-1.9-0.1-2.8
			C156.3,38.6,156.2,37.6,155.9,36.7z M151.1,47.7c-1.5,0-2.9,0-4.4,0.2c0.1-0.8,0.1-1.6,0.1-2.4c0-0.9,0-1.8,0-2.7
			c0-0.4,0-0.9,0-1.3c0-0.5,0-0.9-0.1-1.4c-0.1-0.9-0.2-1.9-0.4-3c0.9,0.1,1.6,0.1,2.4,0.1c0.8,0,1.6,0,2.3,0c1.4,0,2.8-0.1,4.2-0.2
			c-0.2,0.8-0.3,1.7-0.3,2.5c-0.1,0.9-0.1,1.9,0,2.8c0,0.9,0.1,1.9,0.2,2.8c0.1,0.8,0.2,1.7,0.4,2.5c-0.7,0-1.4,0-2,0
			C152.7,47.7,151.9,47.7,151.1,47.7z"/>
	</g>
	<g>
		<path class="st0" d="M185.7,37.2c-1.4-0.1-2.9-0.2-4.4-0.2c-0.8,0-1.5,0-2.3,0s-1.6,0-2.3,0c-1.6,0-3.1,0.1-4.6,0.2
			c-0.8,0-1.6,0.1-2.3,0.1c-0.8,0-1.5,0.1-2.3,0.2l-0.3,0.3c-0.1,0.5-0.2,0.9-0.2,1.4s-0.1,0.9-0.1,1.4c0,0.9,0,1.8,0.1,2.8
			c0,0.9,0.1,1.8,0.2,2.8c0.1,0.9,0.1,1.8,0.3,2.8l0.3,0.3c1.5,0.3,3,0.4,4.5,0.5c1.5,0,3,0,4.5-0.1l2.3-0.1l2.3-0.2
			c1.5-0.1,3-0.3,4.5-0.5l0.3-0.3c0.2-1.9,0.2-3.8,0.1-5.8c0-1-0.1-1.9-0.1-2.9C186,38.9,185.9,38,185.7,37.2z M179,47.9l-2.3,0
			c-1.5,0-3,0-4.5,0.1c-1.4,0.1-2.8,0.2-4.2,0.6c0.1-0.8,0.1-1.6,0.1-2.4c0-0.9,0.1-1.8,0.1-2.8c0-0.9,0-1.8,0-2.8
			c0-0.5,0-0.9-0.1-1.4c-0.1-0.3-0.1-0.7-0.2-1.1c0.6,0,1.2,0,1.8,0.1c0.7,0,1.5,0,2.2,0c1.5,0,2.9,0,4.4,0c0.7,0,1.5,0,2.2,0
			c0.7,0,1.5,0,2.2-0.1c1.5-0.1,3-0.2,4.6-0.4c-0.2,1.1-0.2,2-0.3,2.9c0,0.9,0,1.8,0,2.7c0,1.6,0.1,3.3,0.3,5
			c-1.4-0.1-2.8-0.2-4.2-0.3L179,47.9z"/>
	</g>
	<g>
		<path class="st0" d="M239.6,55.8c0-0.4-0.1-0.7-0.2-1.1l0,0l0,0c0.1-1.1,0.1-2.2,0-3.3c0-0.5,0-1.1-0.1-1.6c0-0.5-0.1-1.1-0.1-1.6
			l-0.3-0.3c-3.4-0.1-6.8-0.1-10.2-0.1c-3.4,0-6.9,0-10.3,0.1c-3.4,0.1-6.9,0.2-10.2,0.3c-3.1,0.1-6.2,0.3-9.1,0.5c0-1.3,0-2.7,0-4
			c0-1.8,0-3.6,0-5.4c0-0.9,0-1.8-0.1-2.7c-0.1-0.8-0.1-1.6-0.3-2.4c0.5,0,1-0.1,1.5-0.1c1.4,0.8,2.8,1.7,4.1,2.5l0.5-0.3l-0.3-3.5
			l-0.1-0.2c-3.9-2.9-7.9-5.7-12-8.4c-4-2.8-8.1-5.4-12.2-8.1l-6.1-4l-6.1-4c-4.1-2.7-8.2-5.3-12.3-7.9l-0.2,0v0
			c-1.4,0.4-2.9,0.8-4.3,1.2c-1.4,0.4-2.9,0.8-4.3,1.2c-1.4,0.4-2.8,0.8-4.3,1.2l-4.2,1.2c-2.8,0.8-5.7,1.7-8.5,2.5
			c-2.8,0.8-5.6,1.7-8.3,2.9c-0.3-0.4-0.7-0.7-1-1.1c-0.3-0.4-0.7-0.7-1.1-1c-0.4-0.3-0.8-0.6-1.2-0.8L118,7.3c-1-0.2-2-0.2-3-0.2
			s-2,0-3,0.1c-1,0-2,0.1-3,0.2c-1,0.1-2,0.2-3,0.3l0,0.4l-0.2,0l-1.7,4.6c-1-0.1-1.9-0.1-2.9-0.2c-1,0-2.1,0-3.1,0
			c-1,0-2.1,0.1-3.1,0.1s-2.1,0.2-3.1,0.4l0,0.3l-0.3,0c-0.2,0.4-0.4,0.9-0.6,1.4s-0.3,0.9-0.5,1.4c-0.2,0.5-0.3,0.9-0.4,1.4
			c-0.1,0.5-0.2,1-0.2,1.5l0.3,0.4l2.1,0c0,0.1,0,0.3,0,0.4c0,0.7,0,1.3,0,2c0,0.1,0,0.2,0,0.4c-3,1.3-5.9,2.6-8.9,4
			c-3,1.4-6.1,2.9-9.1,4.3s-6,3-9,4.5c-3,1.5-5.9,3.1-8.9,4.8l0.1,0.5h0l0.1,2.9l0.3,0.3c1.3,0.1,2.6,0.2,3.9,0.2
			c-0.2,0.7-0.2,1.5-0.3,2.2c-0.1,0.8-0.1,1.7,0,2.5c0,0.8,0.1,1.7,0.2,2.5c0.1,0.8,0.2,1.7,0.4,2.5l0.3,0.3c2,0.3,4.1,0.6,6.1,0.9
			c2,0.3,4.1,0.5,6.1,0.7c2.1,0.2,4.1,0.5,6.1,0.6c2.1,0.2,4.1,0.3,6.2,0.3v0l0,0c2.3,0.1,4.7,0.1,7,0.1c2.3,0,4.7,0,7,0
			c2.3,0,4.7-0.1,7-0.2s4.7-0.2,7-0.5c0.4,0.1,0.8,0.1,1.2,0.2c0.4,0,0.8,0,1.2,0c0.4,0,0.8,0,1.2,0c0.4,0,0.8-0.1,1.2-0.1
			c1.1,0.2,2.1,0.3,3.2,0.4c1.1,0.1,2.1,0.1,3.2,0.1c1.1,0,2.1,0,3.2,0c1.1,0,2.1-0.1,3.2-0.2l0,0v0c2.2,0.2,4.4,0.2,6.7,0.2
			c2.2,0,4.4,0,6.7-0.1s4.4-0.1,6.7-0.2c2.2-0.1,4.3-0.2,6.5-0.4c0.6,0.2,1.2,0.4,1.8,0.5c0.6,0.1,1.2,0.2,1.9,0.2
			c0.3,0,0.6,0,0.9,0.1c0.3,0,0.6,0,0.9,0c0.6,0,1.3,0,1.9-0.1l0.2-0.2v0.2c1.8,0.1,3.6,0.2,5.4,0.2c1.8,0,3.6,0,5.4,0
			c0.9,0,1.8,0,2.7,0c0.9,0,1.8-0.1,2.7-0.1c1.7-0.1,3.5-0.2,5.2-0.4c0.9,0.2,1.8,0.2,2.8,0.3c0.9,0,1.9,0,2.8,0
			c0.9,0,1.9-0.1,2.8-0.2c0.8-0.1,1.7-0.2,2.5-0.3l-0.1,1.3l0.3,0.3l14.2-0.4l0,0.1c0.6,0.3,1.1,0.6,1.7,0.8
			c0.6,0.3,1.1,0.5,1.7,0.7s1.2,0.4,1.8,0.6c0.6,0.2,1.2,0.2,1.9,0.1l0.1,0.1l1.5,0l0.3-0.3c0.2-0.4,0.1-0.8,0.1-1.3
			c0-0.2,0-0.5-0.1-0.7c0.4,0.2,0.8,0.4,1.3,0.6c0.6,0.2,1.2,0.5,1.8,0.7c0.6,0.2,1.2,0.4,1.8,0.6c0.6,0.2,1.2,0.3,1.9,0.4l0-0.1
			l0.1,0.1l1.5,0l0.3-0.3c0.1-0.5,0.1-0.9,0.1-1.4c0-0.3,0-0.6-0.1-0.8c0.4,0.2,0.9,0.5,1.4,0.7c0.6,0.3,1.3,0.5,1.9,0.8
			c0.6,0.2,1.3,0.5,1.9,0.7c0.7,0.2,1.3,0.4,2,0.5l0-0.1l0.1,0.1l1.4,0l0.3-0.3c0.1-0.8,0.2-1.5,0.2-2.2
			C239.6,56.6,239.6,56.2,239.6,55.8z M238.8,58.9l-0.7,0c0-0.2,0-0.3,0.1-0.5c0-0.3,0-0.5,0-0.8c0-0.5-0.1-1-0.2-1.5l-0.3-0.3
			l-38.9,1l0.1-1c3.3,0.1,6.6,0.2,9.9,0.1c3.4,0,6.8-0.1,10.1-0.2l5.1-0.1l5.1-0.2c3.2-0.1,6.5-0.2,9.7-0.4
			c-0.1,0.3-0.1,0.5-0.1,0.8c0,0.4,0,0.7,0,1.1C238.6,57.6,238.7,58.2,238.8,58.9z M229.7,56.7c0,0.4-0.1,0.8-0.1,1.1
			c0,0.4,0,0.7,0.1,1.1l-0.8,0c0-0.4,0.1-0.8,0-1.1c0-0.4,0-0.7-0.1-1.1L229.7,56.7z M220.9,58.9l-0.7,0c0.1-0.3,0.1-0.7,0.1-1
			c0-0.2,0-0.5,0-0.7c0-0.1,0-0.2-0.1-0.3l0.8,0c-0.1,0.4-0.1,0.7-0.1,1.1C220.8,58.3,220.8,58.6,220.9,58.9z M238.7,54.4
			c-3.3,0-6.5,0-9.8,0l-5.1,0l-5.1,0.1c-3.4,0.1-6.8,0.1-10.1,0.2c-3.3,0.1-6.5,0.3-9.8,0.5c0-0.5,0-1.1,0.1-1.6
			c3.3,0.1,6.6,0.1,9.8,0c3.4,0,6.7-0.1,10.1-0.2c3.4-0.1,6.7-0.2,10.1-0.3c3.2-0.1,6.4-0.2,9.7-0.4
			C238.6,53.3,238.7,53.9,238.7,54.4z M238.6,51.4c0,0.2,0,0.5,0,0.7c-3.2,0-6.4,0-9.7,0c-3.4,0-6.7,0.1-10.1,0.1
			c-3.4,0.1-6.7,0.1-10.1,0.2c-3.3,0.1-6.5,0.2-9.8,0.4c0-0.1,0-0.1,0-0.2c0-0.4,0-0.8,0-1.2c3.2,0.1,6.4,0.1,9.7,0.1
			c3.4,0,6.7-0.1,10.1-0.2c3.4-0.1,6.7-0.2,10.1-0.3c3.2-0.1,6.5-0.3,9.7-0.5C238.6,51,238.6,51.2,238.6,51.4z M209,49.3
			c3.4,0,6.7,0,10-0.1c3.3-0.1,6.6-0.2,9.9-0.3c3.2-0.1,6.4-0.3,9.7-0.5c0,0.4,0,0.9,0,1.3c0,0.1,0,0.2,0,0.3
			c-3.2-0.1-6.5-0.1-9.7-0.1c-3.4,0-6.7,0-10.1,0.1c-3.4,0-6.7,0.1-10.1,0.2c-3.2,0.1-6.4,0.3-9.6,0.5c0-0.3,0-0.5,0-0.8
			c0-0.3,0-0.6,0-0.9C202.4,49.3,205.7,49.3,209,49.3z M197.5,33.3c-1,0-2,0-3-0.1c-1.9,0-3.8-0.1-5.7,0.2c-0.5-0.4-1.1-0.7-1.6-1.1
			c-1.1-0.7-2.2-1.4-3.4-2c-1.1-0.7-2.3-1.3-3.4-1.9c-1.2-0.6-2.3-1.2-3.5-1.8h-0.3c-0.7,0.2-1.4,0.5-2,0.8
			c-0.7,0.3-1.3,0.6-1.9,0.9c-1.3,0.7-2.5,1.4-3.7,2.1c-1.2,0.7-2.4,1.5-3.6,2.2c-0.6,0.4-1.2,0.8-1.7,1.2c-0.7,0-1.4,0-2.2,0
			c-1.3,0-2.6,0-3.8,0c-1.3,0-2.6,0-3.8,0l-3.8,0c-2.6,0-5.1,0-7.7,0.1c-2.5,0-5.1,0.1-7.6,0.6c-0.8-0.4-1.5-0.8-2.3-1.2
			c-0.8-0.4-1.6-0.8-2.4-1.2c-1.6-0.8-3.2-1.6-4.8-2.3s-3.2-1.5-4.8-2.3c-0.6-0.3-1.3-0.6-1.9-0.9c5.2,0.1,10.3,0.1,15.5,0
			c5.9,0,11.8-0.1,17.7-0.3c2.9-0.1,5.9-0.1,8.8-0.2l4.4-0.1l4.4-0.1c5.6-0.2,11.2-0.4,16.9-0.7c2,1.3,4,2.5,6,3.8
			c2.1,1.3,4.1,2.6,6.2,3.8c0.3,0.2,0.6,0.4,0.9,0.6C198.5,33.3,198,33.3,197.5,33.3z M195.9,46.4c-0.7-0.3-1.3-0.4-2-0.4
			c-0.8,0-1,0-1.8,0.1c-0.8,0.1-1.6,0.1-2.4,0.2c-0.6,0.1-1.3,0.2-1.9,0.3c0-0.3,0-0.6,0-0.9c-0.1-2.9,0-5.8-0.3-8.8
			c0.2,0.1,0.4,0.2,0.6,0.3l0.4-0.1c0.2-0.1,0.4-0.3,0.6-0.5c0,0,0,0,0,0c0.1,0,0.3,0,0.4,0c0.8,0,1.6,0,2.4,0c0.8,0,1,0,1.8-0.1
			c0.7,0,1.4-0.1,2.1-0.1c-0.1,0.8-0.1,1.6-0.1,2.4c0,0.9,0,1.8,0,2.7C195.6,43.2,195.6,44.8,195.9,46.4z M188.9,35.6
			c-0.2,0.2-0.3,0.4-0.4,0.6c-0.1,0.1-0.2,0.3-0.2,0.4c-0.8-0.6-1.6-1.2-2.5-1.8c-0.9-0.6-1.9-1.2-2.8-1.8c-0.9-0.6-1.9-1.2-2.9-1.8
			c-1-0.6-2-1-3.1-1.3h-0.3c-0.6,0.1-1.2,0.4-1.8,0.6c-0.6,0.2-1.1,0.5-1.6,0.8c-1.1,0.6-2.1,1.2-3.1,1.9c-0.5,0.3-1,0.6-1.6,1
			s-1,0.7-1.5,1c-0.9,0.6-1.8,1.2-2.7,1.9c-0.1-0.1-0.1-0.2-0.2-0.3c-0.1-0.2-0.2-0.4-0.4-0.5s-0.3-0.3-0.5-0.5
			c-0.2-0.2-0.4-0.4-0.6-0.6c1.4-0.6,2.6-1.2,3.9-1.8c1.2-0.6,2.5-1.2,3.6-1.8c1.2-0.6,2.4-1.2,3.5-1.9c0.6-0.4,1.1-0.7,1.7-1.1
			c0.5-0.4,1-0.7,1.5-1.1c1,0.7,2.1,1.4,3.1,2.1c1.1,0.7,2.2,1.4,3.4,2.1c1.1,0.7,2.3,1.3,3.4,1.9c1,0.5,2,1.1,3.1,1.5
			c-0.1,0.1-0.2,0.1-0.2,0.2C189.2,35.2,189,35.4,188.9,35.6z M155.4,5.1c3,2.1,6.1,4.2,9.1,6.2c-1.6-0.1-3.1-0.1-4.7-0.1
			c-2.1,0-4.1,0-6.2,0c-2.1,0-4.1,0.1-6.2,0.1c-1.4,0.1-2.9,0.1-4.3,0.3C147.3,9.5,151.4,7.3,155.4,5.1z M135.7,23.1
			c0.1-0.9,0.1-1.7,0.1-2.6c0-0.4,0-0.8-0.1-1.2c0.1,0,0.1,0,0.2,0l0.5,0l0.9,0l1.9,0c1,0,2,0,3,0l0.1,1.1l0.1,1.7
			c0.1,0.9,0.1,1.7,0.2,2.6c-2.4,0.1-4.7,0.1-7.1,0.2C135.6,24.4,135.7,23.7,135.7,23.1z M158.1,13.5c-0.1,0.6-0.1,1.1-0.1,1.7
			c0,0.9,0,1.9,0,2.8c-1,0-1.9,0.1-2.9,0.2c-1.2,0.1-2.4,0.2-3.6,0.3c-0.1-1.9-0.2-3.9-0.3-5.8c0.8,0,1.7,0,2.5-0.1
			c1.5,0,3-0.1,4.5-0.2C158.2,12.8,158.1,13.2,158.1,13.5z M150.2,18.5c-1.2-0.2-2.4-0.2-3.6-0.2c-1,0-2,0-3,0.1c0-1,0-1.9-0.1-2.9
			c-0.1-1-0.2-1.9-0.4-2.9c1.5,0.1,2.9,0.1,4.4,0.1c0.9,0,1.9,0,2.8,0C150.2,14.6,150.2,16.6,150.2,18.5z M143.5,22.3l0-1.7l0-1.1
			c1,0,2,0,3,0c1.2,0,2.4-0.1,3.6-0.3c0,1,0,2,0.1,3c0.1,0.8,0.1,1.7,0.2,2.5c-2.4,0-4.8,0.1-7.2,0.1
			C143.4,24,143.5,23.1,143.5,22.3z M151.6,22.2c0-1,0-2,0-3.1c1.2,0.1,2.4,0.1,3.6,0.1c1,0,1.9,0,2.9,0c0,0.9,0.1,1.8,0.2,2.7
			c0.1,0.9,0.2,1.7,0.3,2.6c-2.3,0-4.7,0.1-7,0.1C151.5,23.8,151.6,23,151.6,22.2z M159.5,21.9c0-0.9,0.1-1.8,0.1-2.7c1,0,2,0,3.1,0
			c0.6,0,1.2-0.1,1.9-0.1c0.5-0.1,1.1-0.1,1.6-0.3c0,1,0,2,0.1,2.9c0.1,0.9,0.1,1.8,0.3,2.8c-2.4,0-4.7,0-7.1,0.1
			C159.4,23.7,159.4,22.8,159.5,21.9z M167.2,18.8c0.7,0.2,1.4,0.2,2.1,0.3c0.8,0,1.5,0,2.3,0s1.5-0.1,2.3-0.1c0,0,0.1,0,0.1,0
			c0,0.1,0,0.2,0,0.2c0,0.7,0,1.3,0,2c0,0.7,0.1,1.3,0.1,2c0,0.5,0.1,0.9,0.1,1.4c-1.7,0-3.5,0-5.2,0c-0.6,0-1.2,0-1.8,0
			c0.1-0.9,0.1-1.9,0.1-2.8C167.3,20.7,167.2,19.7,167.2,18.8z M175,23.1c0-0.7,0-1.3,0-2s0-1.3-0.1-2c0-0.1,0-0.2,0-0.3
			c0.3,0,0.5-0.1,0.8-0.1c1.3,0.8,2.6,1.7,3.9,2.5l5.3,3.4c-3.3,0-6.6,0-9.9,0C175,24,175,23.5,175,23.1z M174,17.7
			c-0.1,0-0.1,0-0.2,0c-0.8,0-1.5-0.1-2.3-0.1s-1.5,0-2.3,0.1c-0.7,0.1-1.4,0.2-2.1,0.4c0-1-0.1-2.1-0.2-3.1
			c-0.1-0.7-0.1-1.4-0.2-2.1c0.2,0.1,0.3,0.2,0.5,0.3c2.2,1.5,4.5,2.9,6.7,4.4C174.1,17.6,174,17.7,174,17.7z M166,15
			c0,1.1,0,2.1,0,3.1c-0.5-0.1-1.1-0.2-1.6-0.2c-0.6,0-1.2-0.1-1.9,0c-1,0-2,0.1-3,0.1c0-0.9,0-1.8-0.1-2.8c0-0.6-0.1-1.1-0.2-1.7
			c-0.1-0.4-0.1-0.7-0.2-1.1c0.3,0,0.5,0,0.8,0c1.9-0.1,3.8-0.2,5.7-0.4c0.2,0.1,0.3,0.2,0.5,0.3C166.1,13.2,166,14.1,166,15z
			 M141.6,12.5c0.2,0,0.5,0,0.7,0.1c-0.2,1-0.2,2-0.3,3c0,1,0,1.9,0,2.9c-1,0-2,0.1-3,0.1l-1.9,0.1l-0.9,0l-0.5,0
			c-0.1,0-0.1,0-0.2,0c0-0.3,0-0.6-0.1-0.8c-0.1-0.7-0.2-1.4-0.3-2.1c0.6-0.3,1.1-0.6,1.7-0.9C138.5,14.1,140.1,13.3,141.6,12.5z
			 M134.3,18c0,0.3,0,0.5,0,0.8c-0.5-0.2-1-0.2-1.6-0.2c-0.6,0-1.1,0-1.7,0.1c-0.3,0-0.7,0-1,0.1c1.5-0.8,2.9-1.5,4.4-2.3
			C134.4,16.9,134.3,17.4,134.3,18z M128.3,19.6c0.4,0,0.7,0,1.1,0.1c0.6,0,1.1,0,1.7,0c0.6,0,1.1,0,1.7,0c0.5,0,1,0,1.5-0.2
			c0,0.4,0,0.7,0,1.1c0,0.9,0.1,1.7,0.1,2.6c0.1,0.7,0.2,1.3,0.3,2c-0.3,0-0.7,0-1,0c-2.2,0.1-4.3,0.1-6.5,0.2
			c0.1-0.8,0.1-1.7,0.1-2.5c0-0.5,0-1-0.1-1.5c0-0.4-0.1-0.8-0.1-1.1C127.5,20,127.9,19.8,128.3,19.6z M126.4,25.4
			c-2.3,0.1-4.5,0.2-6.8,0.3c0-0.1,0-0.1,0-0.2c0-0.2,0.1-0.4,0.1-0.6s0-0.4,0-0.6c0,0,0-0.1,0-0.2c2.2-1.2,4.5-2.3,6.7-3.5
			c0,0.2,0,0.5-0.1,0.7c0,0.5,0,1,0,1.5C126.3,23.7,126.3,24.6,126.4,25.4z M118.6,24.9c0,0.2,0,0.4,0.1,0.6c0,0.1,0,0.1,0.1,0.2
			c-0.8,0-1.5,0.1-2.3,0.1c0,0-0.1,0-0.1,0c0.7-0.4,1.3-0.7,2-1c0.1,0,0.2-0.1,0.2-0.1C118.6,24.8,118.6,24.8,118.6,24.9z
			 M167.3,8.9l6.1,4.1l6.1,4.1c4.1,2.7,8.1,5.4,12.2,8.1c4.1,2.6,8.1,5.2,12.3,7.7l0.2,2.7c-1.8-1.3-3.7-2.5-5.5-3.8
			c-2-1.4-4-2.7-6.1-4c-2-1.4-4.1-2.7-6.1-4l-6.1-4c-4.1-2.6-8.2-5.2-12.3-7.8c-4.1-2.6-8.3-5.1-12.4-7.6l-0.3,0
			c-6.3,3.2-12.6,6.3-18.8,9.6c-6.3,3.2-12.5,6.4-18.8,9.7c-6.2,3.2-12.5,6.5-18.7,9.8c-6.1,3.2-12.1,6.5-18.1,9.8
			c0-0.4,0-0.8,0-1.2c0-0.3,0-0.6-0.1-0.9c0-0.3-0.1-0.6-0.1-0.9c6.5-3.1,12.8-6.4,19-9.7l18.6-9.9c6.2-3.3,12.4-6.7,18.6-10l9.3-5
			l9.1-5C159.3,3.4,163.3,6.2,167.3,8.9z M62.7,40.7c2,0.1,4,0.2,5.9,0.2c2,0,4,0.1,5.9,0.1l3,0c0.5,0,1,0,1.5-0.1
			c0.4-0.1,0.8-0.2,1.2-0.4c0,0.1,0,0.2,0,0.3c0,0.3,0,0.6,0,1c0,0.5,0,1,0.1,1.6c-1.9-0.2-3.7-0.3-5.6-0.4c-2-0.1-3.9-0.1-5.9-0.2
			s-3.9-0.1-5.9-0.1c-1.9,0-3.7,0-5.6,0l0-2.5C59.1,40.5,60.9,40.6,62.7,40.7z M109,8.3c1,0,2,0,3,0c1,0,2,0,3-0.1
			c0.9-0.1,1.9-0.2,2.8-0.3c0.2,0.4,0.5,0.7,0.8,1.1c0.3,0.4,0.7,0.7,1.1,1c0.5,0.4,0.9,0.8,1.4,1.2c-0.8-0.1-1.5-0.1-2.2-0.1
			c-1.1,0-2.2,0-3.3,0.1c-1.1,0.1-2.2,0.1-3.3,0.2c-1,0.1-2.1,0.2-3.1,0.4c-0.1-0.4-0.3-0.7-0.5-1c-0.2-0.4-0.5-0.7-0.7-1
			s-0.5-0.6-0.8-1c-0.2-0.2-0.3-0.4-0.5-0.6C107.5,8.2,108.2,8.3,109,8.3z M119.5,15.8c0.1,0.4,0.1,0.8,0.2,1.2
			c-0.8,0.3-1.6,0.6-2.3,1c-0.4,0.2-0.8,0.4-1.3,0.6c-0.4,0.2-0.8,0.4-1.2,0.6c-0.8,0.4-1.6,0.9-2.4,1.3c-0.7,0.4-1.3,0.8-1.9,1.2
			c0.2-0.7,0.2-1.4,0.3-2.1c0.1-0.8,0-1.6,0-2.5c0-0.8-0.1-1.6-0.2-2.5c-0.1-0.8-0.2-1.5-0.3-2.2c0.7,0,1.4,0.1,2,0.1
			c1.1,0,2.2,0,3.3,0s2.2-0.1,3.3-0.1c0.2,0,0.5,0,0.7-0.1c-0.1,0.2-0.1,0.5-0.1,0.7c-0.1,0.5-0.1,0.9-0.1,1.4
			C119.4,14.9,119.5,15.4,119.5,15.8z M107.2,14.9c-0.1-0.8-0.2-1.6-0.3-2.4l0.6-1.5c0.1,0.2,0.2,0.3,0.3,0.5
			c0.3,0.3,0.6,0.6,0.9,0.9l0.3,0.1c0.2,0,0.4,0,0.6,0.1c-0.1,0.8-0.2,1.6-0.3,2.3c-0.1,0.8-0.1,1.7-0.1,2.5s0,1.6,0.1,2.5
			c0.1,0.8,0.2,1.5,0.4,2.3l-2.4,0c0.1-0.7,0.1-1.5,0.1-2.2c0-0.8,0-1.7,0-2.5C107.4,16.5,107.3,15.7,107.2,14.9z M106.2,8.8
			c0.1,0.2,0.2,0.3,0.3,0.5c0.2,0.3,0.4,0.6,0.6,1l-0.8,2l0,0.1c0,0.3-0.1,0.7-0.1,1l-1.7,0L106.2,8.8z M98.2,13.7
			c1,0,2.1-0.1,3.1-0.1c0.9-0.1,1.8-0.1,2.6-0.3l-0.2,0.4l0.3,0.4l2.1,0c0,0.3,0,0.6,0,0.9c0,0.7,0,1.4,0,2.2
			c-0.9-0.1-1.7-0.2-2.6-0.2c-1,0-2-0.1-3-0.1s-2,0-3,0.1c-0.5,0-1,0.1-1.5,0.2c-0.4,0.1-0.9,0.1-1.3,0.3c-0.3-0.7-0.7-1.4-1.1-2.1
			c-0.3-0.6-0.7-1.2-1.1-1.8c0.9,0.1,1.7,0.1,2.6,0.2C96.2,13.7,97.2,13.7,98.2,13.7z M104.5,20.6c0,0.3,0.1,0.5,0.2,0.8
			c-0.7,0.2-1.3,0.5-1.9,0.7c-0.4,0.1-0.7,0.3-1.1,0.5l-1,0.5c-0.7,0.3-1.4,0.7-2,1.1c-0.5,0.3-1,0.6-1.4,0.9c0-0.5,0.1-0.9,0.1-1.4
			c0-0.7,0-1.3,0-2s-0.1-1.3-0.1-2c0-0.5-0.1-0.9-0.2-1.3c0.2,0,0.5,0,0.7,0c1,0,2,0,3,0s2-0.1,3-0.2c0.3,0,0.6-0.1,0.9-0.1
			c0,0.2-0.1,0.3-0.1,0.5c0,0.4,0,0.7,0,1C104.4,19.9,104.4,20.3,104.5,20.6z M93.4,19.7c-0.1-0.6-0.1-1.3-0.2-1.9l0.3-1.1
			c0.2,0.4,0.5,0.8,0.7,1.1l0.3,0.2c0.5,0.1,1,0.2,1.5,0.2c0,0,0,0,0.1,0c0,0.5-0.1,1-0.1,1.5c0,0.7,0,1.3,0,2c0,0.7,0.1,1.3,0.1,2
			c0.1,0.6,0.1,1.1,0.2,1.7l-3-0.1c0.1-0.6,0.1-1.1,0.2-1.7c0-0.7,0-1.3,0-2C93.5,21,93.5,20.4,93.4,19.7z M90.9,18.7
			c0.2-0.3,0.3-0.6,0.4-1c0.2-0.5,0.3-0.9,0.5-1.4s0.2-1,0.3-1.4c0-0.2,0.1-0.3,0.1-0.5c0.2,0.4,0.5,0.9,0.7,1.3
			c0.1,0.1,0.1,0.2,0.2,0.3l-0.5,1.6l0,0.1c-0.1,0.3-0.1,0.6-0.1,1L90.9,18.7z M66.1,36.1c3-1.4,6.1-2.9,9.1-4.4c3-1.5,6-3,9-4.5
			c2.8-1.5,5.6-2.9,8.3-4.5c0,0.3,0,0.6,0.1,0.9c0.1,0.7,0.1,1.3,0.3,2l0.3,0.3l3.7,0.1v-0.1l0.1,0.1c0.7-0.2,1.5-0.5,2.2-0.8
			s1.4-0.6,2.1-0.9l1-0.5c0.3-0.2,0.7-0.4,1-0.5c0.7-0.4,1.3-0.8,1.9-1.2l0.2-0.3c0.1-0.4,0.2-0.7,0.2-1c0-0.4,0.1-0.7,0-1
			c0-0.4,0-0.7-0.1-1c0-0.2-0.1-0.4-0.1-0.6c0.3,0,0.6-0.1,0.9-0.1c0,0.7,0.1,1.4,0.1,2.1c0.1,0.8,0.2,1.7,0.3,2.5l0.3,0.3l3.3-0.1
			l0.1,0c0.9-0.3,1.8-0.7,2.6-1c0.8-0.4,1.7-0.8,2.5-1.2c0.4-0.2,0.8-0.4,1.2-0.7c0.4-0.2,0.8-0.5,1.2-0.7c0.8-0.5,1.6-1,2.4-1.5
			l0.2-0.3c0.2-0.5,0.2-0.9,0.3-1.4c0.1-0.5,0.1-0.9,0.1-1.4c0-0.5,0-0.9-0.1-1.4c0-0.3-0.1-0.6-0.2-0.9c0.6-0.1,1.1-0.1,1.6-0.3
			l0.2-0.5c-0.2-0.2-0.3-0.4-0.5-0.6c2.8-0.5,5.5-1.3,8.2-2.1c2.8-0.9,5.6-1.7,8.5-2.6l4.2-1.3c1.4-0.4,2.8-0.9,4.2-1.4
			c1.4-0.5,2.8-0.9,4.2-1.4c0.1,0,0.3-0.1,0.4-0.1l-5.9,3.1l-9.4,4.9c-6.3,3.3-12.6,6.6-18.8,9.9l-18.8,10
			c-6.2,3.3-12.3,6.6-18.2,10.1c-0.5-0.3-1-0.4-1.5-0.5c-0.5-0.1-1-0.1-1.5-0.1l-3,0c-2,0-4,0-5.9,0c-2,0-4,0.1-6,0.2
			c-1.4,0-2.8,0.1-4.2,0.2C61,38.5,63.5,37.3,66.1,36.1z M73.8,54.1c-2.1-0.2-4.1-0.4-6.2-0.5c-1.9-0.2-3.9-0.3-5.8-0.4
			c0.1-0.8,0.2-1.5,0.3-2.3c0.1-0.8,0.1-1.7,0.1-2.5c0-0.8,0-1.7-0.1-2.5c-0.1-0.7-0.2-1.4-0.3-2.1c0.4,0,0.8,0,1.2,0.1
			c2,0.1,3.9,0.2,5.9,0.3c2,0.1,3.9,0.1,5.9,0.2s3.9,0,5.9-0.1V44l0.1,0.1c1.5-0.8,3.1-1.5,4.6-2.3c-0.2,1-0.3,2.1-0.4,3.1
			c-0.1,1.2,0,2.5,0,3.7c0.1,1.2,0.1,2.5,0.2,3.7c0.1,1.1,0.2,2.2,0.4,3.3c-1.9-0.4-3.8-0.6-5.7-0.9C77.9,54.5,75.9,54.3,73.8,54.1z
			 M94.3,55.2c0.1-1.2,0.2-2.4,0.2-3.6c0-1.4,0.1-2.8,0-4.2s-0.1-2.8-0.1-4.2c-0.1-1.2-0.2-2.5-0.4-3.8c0.4,0.1,0.8,0.2,1.3,0.2
			c0.6,0,1.1,0,1.6,0c0.6,0,1.1-0.1,1.6-0.1c0.4,0,0.9-0.1,1.3-0.2c0,1.3,0,2.5,0,3.8c0,1.4,0,2.8,0.1,4.2c0.1,2.5,0.2,5.1,0.4,7.6
			c-0.1,0-0.2,0-0.2,0C98.1,55.1,96.2,55.1,94.3,55.2z M101,55c0.1-2.5,0.1-5.1,0-7.7c0-1.4-0.1-2.8-0.2-4.2
			c-0.1-1.4-0.2-2.8-0.3-4.2l-0.3-0.3c-0.6-0.1-1.1-0.1-1.6-0.2s-1.1,0-1.6-0.1c-0.6,0-1.1,0-1.6,0c-0.5,0-1.1,0.1-1.6,0.3l-0.3,0.3
			c-0.2,1.4-0.3,2.8-0.3,4.2c0,1.4,0,2.8,0,4.2c0.1,1.4,0.1,2.8,0.2,4.2c0.1,1.2,0.2,2.4,0.3,3.6c-0.2,0-0.4,0-0.6,0
			c-2.2,0.1-4.4,0.2-6.6,0.4c0.2-1.1,0.3-2.3,0.3-3.4c0.1-1.2,0.1-2.5,0.1-3.7c0-1.2,0-2.5-0.1-3.7c-0.1-1.2-0.3-2.3-0.6-3.5
			c4.5-2.2,9-4.5,13.4-6.8c4.5-2.3,9.1-4.7,13.6-7c-0.1,2.1-0.1,4.2-0.1,6.3c0,1.2,0,2.4,0,3.6c0,1.2,0,2.4,0,3.6l0,3.6l0.1,3.6
			c0,2.3,0.1,4.6,0.5,6.9c-2.2-0.1-4.4-0.2-6.6-0.2C105,54.9,103,54.9,101,55z M116.5,55c-0.4,0-0.8,0-1.2,0c-0.3,0-0.6,0-0.9,0.1
			c0.3-2.3,0.4-4.6,0.3-6.8l-0.1-3.6l-0.1-3.6c0-1.2-0.1-2.4-0.1-3.6c0-1.2-0.1-2.4-0.2-3.6c-0.1-2.2-0.2-4.4-0.4-6.6
			c0.5-0.3,1-0.5,1.5-0.8c0.8,0.6,1.7,1,2.6,1.5c-0.1,0.4-0.2,0.9-0.2,1.3l0,1.8l0.1,3.5l0.2,7c0.1,2.3,0.2,4.7,0.2,7
			c0.1,2.2,0.2,4.4,0.3,6.7c-0.3,0-0.6-0.1-0.9-0.1C117.3,55,116.9,55,116.5,55z M122.2,55c0.1-1.2,0.2-2.5,0.2-3.7
			c0-0.7,0-1.4,0-2.1l0-2.1c0-1.4-0.1-2.9-0.2-4.3c-0.1-1.3-0.2-2.6-0.3-4c0.4,0,0.9,0,1.3,0c0.5,0,1.1,0,1.6-0.1
			c0.5,0,1.1-0.1,1.6-0.2c0.4-0.1,0.8-0.2,1.2-0.2c-0.1,1.3-0.2,2.7-0.2,4c0,1.5,0,3,0,4.5c0,1.5,0.1,3,0.1,4.5
			c0.1,1.3,0.1,2.6,0.2,4c-0.8,0-1.6-0.1-2.4-0.1C124.3,55,123.3,54.9,122.2,55z M128.4,55.2c0.1-1.3,0.1-2.7,0.2-4
			c0-1.5,0.1-3,0.1-4.5c0-1.5,0-3-0.1-4.5c-0.1-1.5-0.1-3-0.3-4.5l-0.3-0.3c-0.5-0.1-1.1-0.1-1.6-0.1c-0.5,0-1.1,0-1.6,0.1
			s-1.1,0.1-1.6,0.2c-0.5,0.1-1.1,0.2-1.6,0.3l-0.3,0.3c-0.1,1.4-0.2,2.9-0.2,4.3s0,2.9,0,4.3l0.1,2.1c0,0.7,0.1,1.4,0.1,2.1
			c0.1,1.2,0.2,2.5,0.3,3.7c-0.8,0-1.5,0.1-2.3,0.2c0-2.2,0-4.5,0.1-6.7c0-2.3,0-4.7,0-7l-0.1-7l-0.1-3.5l0-1.8c0-0.2,0-0.5-0.1-0.7
			c0.2,0.1,0.4,0.2,0.6,0.2c1.6,0.7,3.2,1.5,4.9,2.2c1.6,0.7,3.3,1.4,4.9,2.1c0.6,0.3,1.3,0.5,1.9,0.8c-0.1,1.8-0.2,3.5-0.3,5.3
			c-0.1,1.9-0.1,3.7-0.1,5.6v2.8c0,0.9,0,1.9,0.1,2.8c0.1,1.7,0.2,3.5,0.4,5.2c-0.9-0.1-1.9-0.2-2.8-0.3
			C128.5,55.2,128.5,55.2,128.4,55.2z M145.1,54.9c-2.2,0-4.4,0.1-6.7,0.2c-2.1,0.1-4.2,0.2-6.3,0.5c0.2-1.8,0.3-3.5,0.3-5.2
			c0-0.9,0-1.9,0-2.8l0-2.8c0-1.9-0.1-3.7-0.2-5.6c-0.1-1.7-0.2-3.3-0.3-5c0.8,0.3,1.6,0.7,2.4,1l0.1,0c2.6,0.3,5.1,0.3,7.7,0.3
			c2.6,0,5.1-0.1,7.7-0.2l3.8-0.1c1.3,0,2.5-0.1,3.8-0.2c-0.1,1.5-0.2,3.1-0.2,4.7c0,1.8-0.1,3.5,0,5.2s0,3.5,0.1,5.2
			c0.1,1.6,0.2,3.3,0.5,4.9c-2.1-0.1-4.1-0.1-6.2-0.1C149.5,54.8,147.3,54.8,145.1,54.9z M163.9,55.3c-0.3-0.1-0.6-0.1-0.9-0.2
			S162.3,55,162,55c-0.6-0.1-1.2-0.1-1.9-0.1c-0.5,0-1.1,0-1.6,0.1c0.2-1.6,0.3-3.3,0.3-4.9c0-1.8,0-3.5-0.1-5.2s-0.1-3.5-0.2-5.2
			c-0.1-1.5-0.2-3.1-0.4-4.7c1.1,0,2.1-0.1,3.1-0.2c0.3,0,0.6,0,1,0c-0.1,0.1-0.3,0.2-0.4,0.3c0.1,0.2,0.1,0.4,0.3,0.7
			s0.2,0.5,0.4,0.7s0.3,0.5,0.5,0.7s0.4,0.4,0.7,0.6l0.4,0.1c0.2-0.1,0.4-0.2,0.6-0.3c0,2.6,0,5.1,0.1,7.7c0.1,3.5,0.2,7,0.5,10.4
			C164.9,55.5,164.4,55.4,163.9,55.3z M179.4,55.1c-0.9,0-1.8,0-2.7,0c-1.8,0-3.6,0.1-5.4,0.2c-1.8,0.1-3.5,0.2-5.3,0.4
			c0.1-3.5,0.1-7,0-10.5c-0.1-2.7-0.2-5.4-0.4-8.1c0.6-0.3,1.2-0.6,1.9-0.9c0.6-0.3,1.1-0.6,1.6-0.8c0.5-0.3,1.1-0.6,1.6-0.9
			c1.1-0.6,2.1-1.2,3.2-1.8c0.5-0.3,1-0.6,1.5-1c0.4-0.3,0.9-0.7,1.2-1.1c0.7,0.8,1.6,1.4,2.5,2c1,0.6,1.9,1.1,2.9,1.7
			c1,0.5,2,1.1,3,1.6c0.6,0.3,1.2,0.6,1.7,0.9c-0.1,3,0,6.1,0.1,9.1c0,1.7,0.1,3.3,0.1,5c0.1,1.5,0.1,3.1,0.2,4.6
			c-1.7-0.1-3.4-0.2-5.1-0.2C181.2,55.2,180.3,55.2,179.4,55.1z M192.9,55c-0.9,0-1.9,0-2.8,0.1c-0.7,0.1-1.5,0.1-2.2,0.3
			c0-1.5,0-3,0-4.5c0-1.1,0-2.2,0-3.3c0.6,0.1,1.3,0.2,1.9,0.2c0.8,0.1,1.6,0.1,2.4,0.1c0.8,0,1,0,1.8,0c0.8,0,1.6-0.2,2.4-0.7
			l0.3-0.3c0.3-1.8,0.2-3.6,0.2-5.4c0-0.9-0.1-1.8-0.1-2.7c-0.1-0.9-0.1-1.8-0.2-2.7l-0.3-0.3c-0.8,0-1.6,0-2.4,0c-0.8,0-1,0-1.8,0
			c-0.7,0-1.4,0-2.1,0.1c0.1-0.1,0.1-0.2,0.2-0.3c0.1-0.2,0.3-0.4,0.4-0.7l-0.1-0.5c-0.1-0.1-0.3-0.2-0.4-0.3c1.5,0.1,3,0.1,4.5,0.1
			c1,0,2,0,3-0.1c0.2,0,0.3,0,0.5,0c-0.1,0.8-0.2,1.6-0.2,2.4c0,0.9,0,1.8,0,2.7c0,1.8,0.1,3.6,0.1,5.4c0.1,1.8,0.1,3.6,0.2,5.4
			c0,0.9,0.1,1.8,0.1,2.7c0,0.8,0.1,1.6,0.1,2.4c-0.8-0.1-1.7-0.1-2.5-0.2C194.8,55,193.9,55,192.9,55z M218.3,57.9
			c-0.6-0.2-1.2-0.4-1.8-0.5c-0.4-0.1-0.8-0.2-1.1-0.3l4-0.1c0,0.1,0,0.2,0,0.3c0,0.2,0,0.5,0,0.7c0,0.2,0,0.3,0,0.5
			C219,58.2,218.7,58,218.3,57.9z M225.1,57.4c-0.6-0.2-1.2-0.4-1.8-0.6c0,0-0.1,0-0.1,0l5-0.1c0,0.4,0,0.7,0,1.1
			c0,0.3,0,0.6,0.1,0.9c-0.4-0.2-0.8-0.4-1.3-0.6C226.3,57.9,225.7,57.6,225.1,57.4z M234.1,57.3c-0.6-0.2-1.3-0.4-1.9-0.6
			c0,0-0.1,0-0.1,0l5.3-0.1c-0.1,0.4-0.1,0.8-0.1,1.2c0,0.3,0,0.5,0,0.8c0,0.1,0,0.1,0,0.2c-0.4-0.2-0.9-0.4-1.3-0.6
			C235.4,57.8,234.7,57.5,234.1,57.3z"/>
	</g>
</g>
<path class="st0" d="M21.3,107.4h-1.1v-1.2h1.1V107.4z"/>
<g>
	<g>
		<path class="st0" d="M11.2,80.8c0.9,0.6,1.5,1.4,2,2.3s0.7,1.9,0.7,3c0,1-0.2,1.8-0.6,2.7c-0.4,0.8-1,1.6-1.7,2.2
			c-0.7,0.6-1.5,1.1-2.5,1.5c-0.9,0.4-1.9,0.5-3,0.5H0.3V72.7l5.4,0c0.8,0,1.7,0.2,2.4,0.4s1.4,0.7,2,1.2c0.6,0.5,1,1.1,1.3,1.8
			c0.3,0.7,0.5,1.4,0.5,2.2C11.9,79.2,11.6,80,11.2,80.8z M4.9,77.3v1.9h0.7c0.5,0,0.8-0.1,1.1-0.3c0.3-0.2,0.4-0.4,0.4-0.6
			c0-0.2-0.1-0.4-0.4-0.6c-0.3-0.2-0.7-0.3-1.1-0.3H4.9z M6.2,88.4c0.4,0,0.8-0.1,1.2-0.2c0.4-0.1,0.7-0.3,1-0.5
			C8.6,87.5,8.9,87.2,9,87s0.2-0.6,0.2-0.8c0-0.3-0.1-0.6-0.2-0.9c-0.2-0.3-0.4-0.5-0.7-0.7c-0.3-0.2-0.6-0.4-1-0.5
			c-0.4-0.1-0.8-0.2-1.2-0.2H5.7H5.6H4.9v4.5H6.2z"/>
		<path class="st0" d="M30.6,93l-0.8-2.5h-6.4L22.6,93h-4.9l6.9-20.2h4.4L35.5,93H30.6z M25,85.9h3.3L26.7,81L25,85.9z"/>
		<path class="st0" d="M44.9,93h-4.7V72.7h4.7V93z"/>
		<path class="st0" d="M62.6,72.7v4.7h-3.9V93h-4.7V77.3h-3.9v-4.7H62.6z"/>
		<path class="st0" d="M79.6,93l-0.8-2.5h-6.4L71.6,93h-4.9l6.9-20.2h4.4L84.5,93H79.6z M74,85.9h3.3L75.7,81L74,85.9z"/>
		<path class="st0" d="M111.8,81.3c0,1.2-0.2,2.2-0.7,3.3s-1,1.9-1.8,2.7c-0.8,0.8-1.7,1.4-2.7,1.8c-1,0.4-2.1,0.7-3.3,0.7V93h-4.7
			V72.8h4.7c1.2,0,2.2,0.3,3.3,0.7c1,0.5,1.9,1.1,2.7,1.8s1.4,1.7,1.8,2.7C111.6,79,111.8,80.1,111.8,81.3z M103.5,85.1
			c0.5,0,1-0.1,1.4-0.3c0.4-0.2,0.8-0.5,1.2-0.8c0.3-0.3,0.6-0.7,0.8-1.2c0.2-0.5,0.3-0.9,0.3-1.5c0-0.5-0.1-1-0.3-1.5
			s-0.5-0.9-0.8-1.2s-0.7-0.6-1.2-0.8s-0.9-0.3-1.4-0.3V85.1z"/>
		<path class="st0" d="M128,93l-0.8-2.5h-6.4L120,93h-4.9l6.9-20.2h4.4l6.5,20.2H128z M122.4,85.9h3.3l-1.6-4.9L122.4,85.9z"/>
		<path class="st0" d="M143.7,93.4c-0.6,0-1.3-0.1-1.9-0.3c-0.6-0.2-1.2-0.4-1.8-0.8c-1-0.6-1.8-1.5-2.3-2.5s-0.8-2.1-0.8-3.3h4.7
			c0,0.6,0.1,1,0.4,1.3c0.2,0.3,0.4,0.5,0.6,0.6c0.3,0.2,0.7,0.3,1.1,0.4c0.4,0,0.8-0.1,1.1-0.2c0.3-0.1,0.5-0.2,0.6-0.4
			c0.2-0.2,0.3-0.3,0.4-0.5c0.1-0.2,0.1-0.3,0.1-0.5c0-0.2,0-0.3,0-0.4c0-0.1,0-0.2,0-0.4s-0.1-0.3-0.1-0.5
			c-0.1-0.2-0.2-0.3-0.4-0.5c-0.2-0.2-0.4-0.3-0.6-0.4c-0.2-0.1-0.4-0.2-0.6-0.2c-0.2-0.1-0.5-0.2-0.7-0.2c-0.5-0.2-0.9-0.3-1.4-0.5
			c-0.5-0.2-1-0.4-1.5-0.7c-0.6-0.4-1.2-0.9-1.6-1.5c-0.4-0.6-0.8-1.3-0.9-2s-0.3-1.4-0.2-2.2c0.1-0.7,0.3-1.5,0.6-2.1
			c0.3-0.6,0.7-1.2,1.2-1.6s1.1-0.8,1.7-1.1s1.3-0.4,2-0.5c0.7-0.1,1.4,0,2.1,0.2c0.7,0.2,1.3,0.4,1.9,0.8c0.6,0.4,1.1,0.8,1.5,1.3
			s0.7,1.1,0.9,1.7s0.3,1.3,0.3,2h-4.6c0-0.4-0.1-0.7-0.4-0.9c-0.3-0.2-0.5-0.3-0.7-0.3c0,0-0.1,0-0.3,0s-0.3,0-0.5,0
			c-0.2,0-0.4,0.1-0.5,0.2c-0.2,0.1-0.3,0.3-0.4,0.5c-0.1,0.3-0.2,0.6-0.1,0.9c0.1,0.3,0.3,0.6,0.6,0.8c0.3,0.2,0.5,0.3,0.9,0.4
			c0.3,0.1,0.6,0.2,1,0.3c0.3,0.1,0.6,0.2,0.9,0.3c0.3,0.1,0.6,0.2,1,0.4c1.2,0.6,2.1,1.4,2.8,2.4s1,2.2,1,3.6c0,1.3-0.3,2.5-1,3.5
			s-1.6,1.9-2.8,2.4c-0.5,0.2-1,0.4-1.5,0.5C144.7,93.4,144.2,93.4,143.7,93.4z"/>
		<path class="st0" d="M161.9,93.4c-0.6,0-1.3-0.1-1.9-0.3c-0.6-0.2-1.2-0.4-1.8-0.8c-1-0.6-1.8-1.5-2.3-2.5s-0.8-2.1-0.8-3.3h4.7
			c0,0.6,0.1,1,0.4,1.3c0.2,0.3,0.4,0.5,0.6,0.6c0.3,0.2,0.7,0.3,1.1,0.4c0.4,0,0.8-0.1,1.1-0.2c0.3-0.1,0.5-0.2,0.6-0.4
			c0.2-0.2,0.3-0.3,0.4-0.5c0.1-0.2,0.1-0.3,0.1-0.5c0-0.2,0-0.3,0-0.4c0-0.1,0-0.2,0-0.4s-0.1-0.3-0.1-0.5
			c-0.1-0.2-0.2-0.3-0.4-0.5c-0.2-0.2-0.4-0.3-0.6-0.4c-0.2-0.1-0.4-0.2-0.6-0.2c-0.2-0.1-0.5-0.2-0.7-0.2c-0.5-0.2-0.9-0.3-1.4-0.5
			c-0.5-0.2-1-0.4-1.5-0.7c-0.6-0.4-1.2-0.9-1.6-1.5c-0.4-0.6-0.8-1.3-0.9-2s-0.3-1.4-0.2-2.2c0.1-0.7,0.3-1.5,0.6-2.1
			c0.3-0.6,0.7-1.2,1.2-1.6s1.1-0.8,1.7-1.1s1.3-0.4,2-0.5c0.7-0.1,1.4,0,2.1,0.2c0.7,0.2,1.3,0.4,1.9,0.8c0.6,0.4,1.1,0.8,1.5,1.3
			s0.7,1.1,0.9,1.7s0.3,1.3,0.3,2h-4.6c0-0.4-0.1-0.7-0.4-0.9s-0.5-0.3-0.7-0.3c0,0-0.1,0-0.3,0s-0.3,0-0.5,0
			c-0.2,0-0.4,0.1-0.5,0.2c-0.2,0.1-0.3,0.3-0.4,0.5c-0.1,0.3-0.2,0.6-0.1,0.9s0.3,0.6,0.6,0.8c0.3,0.2,0.5,0.3,0.9,0.4
			c0.3,0.1,0.6,0.2,1,0.3c0.3,0.1,0.6,0.2,0.9,0.3s0.6,0.2,1,0.4c1.2,0.6,2.1,1.4,2.8,2.4s1,2.2,1,3.6c0,1.3-0.3,2.5-1,3.5
			s-1.6,1.9-2.8,2.4c-0.5,0.2-1,0.4-1.5,0.5C162.9,93.4,162.4,93.4,161.9,93.4z"/>
		<path class="st0" d="M182.8,72.7c1.4,0,2.7,0.3,3.9,0.8c1.2,0.5,2.3,1.3,3.2,2.2c0.9,0.9,1.6,2,2.2,3.2c0.5,1.2,0.8,2.6,0.8,3.9
			c0,1.4-0.3,2.7-0.8,3.9s-1.3,2.3-2.2,3.2c-0.9,0.9-2,1.6-3.2,2.2c-1.2,0.5-2.5,0.8-3.9,0.8c-1.4,0-2.7-0.3-3.9-0.8
			c-1.2-0.5-2.3-1.3-3.2-2.2c-0.9-0.9-1.6-2-2.2-3.2c-0.5-1.2-0.8-2.6-0.8-3.9c0-1.4,0.3-2.7,0.8-3.9s1.2-2.3,2.2-3.2
			c0.9-0.9,2-1.6,3.2-2.2C180.1,73,181.4,72.7,182.8,72.7z M182.8,88.3c0.8,0,1.5-0.1,2.1-0.4c0.7-0.3,1.2-0.7,1.7-1.2
			s0.9-1.1,1.2-1.7c0.3-0.7,0.4-1.4,0.4-2.1s-0.1-1.5-0.4-2.1s-0.7-1.2-1.2-1.7c-0.5-0.5-1.1-0.9-1.7-1.2s-1.4-0.4-2.1-0.4
			s-1.5,0.1-2.1,0.4c-0.7,0.3-1.2,0.7-1.7,1.2c-0.5,0.5-0.9,1.1-1.2,1.7c-0.3,0.7-0.4,1.4-0.4,2.1s0.1,1.5,0.4,2.1
			c0.3,0.7,0.7,1.2,1.2,1.7c0.5,0.5,1.1,0.9,1.7,1.2C181.3,88.2,182,88.3,182.8,88.3z"/>
		<path class="st0" d="M217.9,77.4h-7.6v3.1h6v4.7h-6V93h-4.7V72.8h12.2V77.4z"/>
		<path class="st0" d="M235.9,77.4h-8.3v3.1h6.8v4.7h-6.8v3.2h8.3V93h-13V72.8l13,0V77.4z"/>
		<path class="st0" d="M249.4,93c-1,0-2-0.2-2.9-0.6s-1.7-0.9-2.5-1.6c-0.7-0.7-1.3-1.6-1.7-2.5c-0.4-0.9-0.6-1.9-0.6-2.9V72.7h4.7
			v12.6c0,0.8,0.3,1.5,0.9,2.1c0.6,0.6,1.3,0.9,2.1,0.9c0.4,0,0.8-0.1,1.2-0.2c0.4-0.2,0.7-0.4,1-0.7c0.3-0.3,0.5-0.6,0.6-1
			c0.1-0.4,0.2-0.8,0.2-1.2V72.7h4.7v12.5c0,1.1-0.2,2-0.6,3s-0.9,1.8-1.6,2.5s-1.5,1.3-2.4,1.7C251.5,92.8,250.5,93,249.4,93
			L249.4,93z"/>
		<path class="st0" d="M267.2,72.7c1.3,0.1,2.6,0.4,3.8,1c1.2,0.6,2.2,1.3,3.1,2.2c0.9,0.9,1.6,2,2.1,3.2s0.8,2.5,0.8,3.9
			c0,1.4-0.2,2.6-0.7,3.8s-1.2,2.2-2.1,3.1c-0.9,0.9-1.9,1.6-3.1,2.2c-1.2,0.5-2.5,0.8-3.8,0.9h-4.7V72.7L267.2,72.7L267.2,72.7
			L267.2,72.7z M267.2,88.3c0.7-0.1,1.4-0.3,2-0.6c0.6-0.3,1.1-0.7,1.6-1.2s0.8-1,1.1-1.6c0.3-0.6,0.4-1.3,0.4-2
			c0-0.7-0.1-1.4-0.4-2.1c-0.3-0.7-0.6-1.2-1.1-1.7c-0.5-0.5-1-0.9-1.6-1.2c-0.6-0.3-1.3-0.5-2-0.6L267.2,88.3L267.2,88.3z"/>
		<path class="st0" d="M290.1,72.7c1.4,0,2.7,0.3,3.9,0.8c1.2,0.5,2.3,1.3,3.2,2.2c0.9,0.9,1.6,2,2.2,3.2c0.5,1.2,0.8,2.6,0.8,3.9
			c0,1.4-0.3,2.7-0.8,3.9s-1.3,2.3-2.2,3.2c-0.9,0.9-2,1.6-3.2,2.2c-1.2,0.5-2.5,0.8-3.9,0.8s-2.7-0.3-3.9-0.8
			c-1.2-0.5-2.3-1.3-3.2-2.2c-0.9-0.9-1.6-2-2.2-3.2c-0.5-1.2-0.8-2.6-0.8-3.9c0-1.4,0.3-2.7,0.8-3.9s1.2-2.3,2.2-3.2
			c0.9-0.9,2-1.6,3.2-2.2C287.4,73,288.7,72.7,290.1,72.7z M290.1,88.3c0.8,0,1.5-0.1,2.1-0.4c0.7-0.3,1.2-0.7,1.7-1.2
			s0.9-1.1,1.2-1.7c0.3-0.7,0.4-1.4,0.4-2.1s-0.1-1.5-0.4-2.1c-0.3-0.7-0.7-1.2-1.2-1.7c-0.5-0.5-1.1-0.9-1.7-1.2s-1.4-0.4-2.1-0.4
			s-1.5,0.1-2.1,0.4s-1.2,0.7-1.7,1.2c-0.5,0.5-0.9,1.1-1.2,1.7c-0.3,0.7-0.4,1.4-0.4,2.1s0.1,1.5,0.4,2.1c0.3,0.7,0.7,1.2,1.2,1.7
			s1.1,0.9,1.7,1.2C288.7,88.2,289.4,88.3,290.1,88.3z"/>
	</g>
	<path class="st0" d="M17.5,106.8v1.2h-3.8V107c0.9-1.1,1.7-2.3,2.5-3.4v-0.3c-0.1-0.4-0.3-0.6-0.7-0.6c-0.4,0-0.7,0.3-0.7,0.7v0.7
		c-0.1,0-0.2,0-0.4,0h0h-0.8v-0.7c0.1-1.2,0.7-1.8,1.9-1.9c1.2,0.1,1.8,0.8,1.9,1.9c0,0.2,0,0.3,0,0.5c-0.7,1-1.4,2-2.1,3
		L17.5,106.8L17.5,106.8z"/>
	<path class="st0" d="M27.8,106.8v1.2H24V107c0.9-1.1,1.7-2.3,2.5-3.4v-0.3c-0.1-0.4-0.3-0.6-0.7-0.6c-0.5,0-0.7,0.3-0.7,0.7v0.7
		c-0.1,0-0.2,0-0.4,0h0h-0.8v-0.7c0.1-1.2,0.7-1.8,1.9-1.9c1.1,0.1,1.8,0.8,1.9,1.9c0,0.2,0,0.3,0,0.5c-0.7,1-1.4,2-2.1,3
		L27.8,106.8L27.8,106.8z"/>
	<path class="st0" d="M32.3,101.4c1.2,0.1,1.8,0.8,1.9,1.9v2.8c-0.1,1.2-0.8,1.8-1.9,1.9c-1.2-0.1-1.8-0.7-1.9-1.9v-2.8
		C30.5,102.1,31.2,101.5,32.3,101.4z M33.1,106.1v-2.8c0-0.4-0.3-0.7-0.7-0.8c-0.5,0.1-0.7,0.3-0.7,0.8v2.8c0,0.4,0.3,0.7,0.7,0.7
		C32.8,106.8,33,106.6,33.1,106.1z"/>
	<path class="st0" d="M38.8,101.4c1.2,0.1,1.8,0.8,1.9,1.9v2.8c-0.1,1.2-0.8,1.8-1.9,1.9c-1.2-0.1-1.8-0.7-1.9-1.9v-2.8
		C37,102.1,37.6,101.5,38.8,101.4z M39.5,106.1v-2.8c0-0.4-0.3-0.7-0.7-0.8c-0.5,0.1-0.7,0.3-0.7,0.8v2.8c0,0.4,0.3,0.7,0.7,0.7
		C39.2,106.8,39.5,106.6,39.5,106.1z"/>
	<path class="st0" d="M54.2,101.5l0,6.5H53v-4.1c-0.4,0.6-0.7,1.2-1.1,1.9c-0.4-0.6-0.8-1.2-1.1-1.9v4.1h-1.2v-6.5h1
		c0.4,0.7,0.8,1.4,1.3,2c0.4-0.7,0.9-1.4,1.3-2C53.2,101.5,54.2,101.5,54.2,101.5z"/>
	<path class="st0" d="M61,101.5v1.2h-1.5v5.3h-1.2v-5.3h-1.5v-1.2H61z"/>
	<path class="st0" d="M85.7,105.8c0,0.1,0,0.2,0,0.3v0c0,0.7-0.3,1.2-0.8,1.6c-0.5,0.4-1.1,0.5-1.7,0.3c0,0,0,0,0,0
		c-0.5-0.2-1-0.4-1.4-0.8c0.2-0.3,0.3-0.7,0.6-1c0.2,0.1,0.3,0.2,0.5,0.3c0.2,0.1,0.4,0.2,0.6,0.3c0.2,0.1,0.4,0.1,0.7,0
		c0.4-0.3,0.5-0.7,0.2-1.1c-0.2-0.2-0.5-0.4-0.7-0.5c-0.3-0.1-0.5-0.3-0.8-0.4c-0.5-0.2-0.8-0.6-1-1.1c0-0.1-0.1-0.2,0-0.3v0
		c0-0.6,0.2-1.2,0.7-1.6c0.5-0.4,1-0.5,1.6-0.4h0c0.4,0.1,0.8,0.3,1.1,0.5c0.2,0.1,0.4,0.2,0.6,0.3c-0.2,0.3-0.4,0.7-0.7,1
		c-0.2-0.1-0.3-0.2-0.5-0.3c-0.2-0.1-0.4-0.2-0.6-0.3s-0.4-0.1-0.6,0c-0.5,0.3-0.6,0.6-0.3,1.1c0.2,0.2,0.5,0.3,0.7,0.5
		c0.2,0.1,0.5,0.3,0.8,0.4C85.2,104.9,85.5,105.2,85.7,105.8z"/>
	<path class="st0" d="M90.6,104.8C90.6,104.8,90.6,104.9,90.6,104.8c0.2,0.4,0.4,0.8,0.6,1.1c0.4,0.7,0.7,1.3,1.1,2
		c-0.4,0-0.9,0-1.3,0c-0.1-0.1-0.1-0.2-0.2-0.3c-0.4-0.8-0.8-1.5-1.3-2.3v1.6c0,0.3,0,0.7,0,1h-1.2v-6.4h1.2v2.6
		c0.1-0.1,0.1-0.2,0.2-0.3c0.4-0.8,0.8-1.5,1.3-2.2h1.4c-0.5,0.8-0.9,1.6-1.4,2.4c-0.1,0.2-0.3,0.5-0.4,0.7
		C90.6,104.6,90.5,104.7,90.6,104.8C90.6,104.7,90.6,104.8,90.6,104.8z"/>
	<path class="st0" d="M96.4,101.5v6.5h-1.2v-6.5H96.4z"/>
	<path class="st0" d="M103.1,104h-1.2v-0.7c-0.1-0.4-0.3-0.7-0.7-0.7c-0.4,0-0.7,0.3-0.7,0.7v2.8c0.1,0.4,0.3,0.7,0.7,0.7
		c0.4,0,0.7-0.3,0.7-0.7v-0.7h1.2v0.7c-0.1,1.1-0.8,1.8-1.9,1.9c-1.2-0.1-1.8-0.7-1.9-1.9v-2.8c0.1-1.2,0.7-1.8,1.9-1.9
		c1.2,0.1,1.8,0.8,1.9,1.9V104z"/>
	<path class="st0" d="M109.5,102.6h-2.6v1.5h1.8v1.2h-1.8v1.5h2.6v1.2h-3.8v-6.5h3.8V102.6z"/>
	<path class="st0" d="M116,107.9h-1.2c-0.5-1.1-0.9-2.2-1.4-3.3v3.3h-1.2v-6.4h1.2c0.5,1.1,0.9,2.3,1.4,3.4v-3.4h1.2
		C116,101.5,116,107.9,116,107.9z"/>
	<path class="st0" d="M122.8,101.5v1.2h-1.5v5.3h-1.2v-5.3h-1.5v-1.2H122.8z"/>
	<path class="st0" d="M129.2,102.6h-2.6v1.5h1.8v1.2h-1.8v1.5h2.6v1.2h-3.8v-6.5h3.8V102.6z"/>
	<path class="st0" d="M135.1,104.7L135.1,104.7c0.3,0.3,0.5,0.7,0.5,1.2v2h-1.2V106c-0.1-0.4-0.3-0.7-0.7-0.7H133v2.6h-1.2v-2.6
		v-1.2v-2.7h1.8c1.2,0.1,1.8,0.8,1.9,1.9C135.6,103.9,135.4,104.3,135.1,104.7z M133.7,104.1c0.4,0,0.7-0.3,0.7-0.7
		c-0.1-0.4-0.3-0.7-0.7-0.7H133v1.5H133.7z"/>
	<path class="st0" d="M148.3,107.9h-3.8v-6.4h1.2v5.3h2.6V107.9z"/>
	<path class="st0" d="M152.9,101.4c1.2,0.1,1.8,0.8,1.9,1.9v4.7h-1.2v-2.1h-1.5v2.1H151v-4.7C151.1,102.2,151.7,101.5,152.9,101.4z
		 M153.6,104.8v-1.4c-0.1-0.4-0.3-0.7-0.8-0.8c-0.4,0.1-0.7,0.3-0.7,0.8v1.4H153.6z"/>
	<path class="st0" d="M161.6,101.5v1.2h-1.5v5.3h-1.2v-5.3h-1.5v-1.2H161.6z"/>
	<path class="st0" d="M168,102.6h-2.6v1.5h1.8v1.2h-1.8v1.5h2.6v1.2h-3.8v-6.5h3.8V102.6z"/>
	<path class="st0" d="M175.3,101.5l0,6.5h-1.2v-4.1c-0.4,0.6-0.7,1.2-1.1,1.9c-0.4-0.6-0.8-1.2-1.1-1.9v4.1h-1.1v-6.5h1
		c0.4,0.7,0.9,1.4,1.3,2c0.4-0.7,0.9-1.4,1.3-2C174.3,101.5,175.3,101.5,175.3,101.5z"/>
	<path class="st0" d="M179.9,101.4c1.2,0.1,1.8,0.8,1.9,1.9v4.7h-1.2v-2.1h-1.5v2.1h-1.2v-4.7C178.1,102.2,178.7,101.5,179.9,101.4z
		 M180.6,104.8v-1.4c-0.1-0.4-0.3-0.7-0.8-0.8c-0.4,0.1-0.7,0.3-0.7,0.8v1.4H180.6z"/>
	<path class="st0" d="M187.6,104.7L187.6,104.7c0.3,0.3,0.5,0.7,0.5,1.2v2H187V106c-0.1-0.4-0.3-0.7-0.7-0.7h-0.6v2.6h-1.2v-2.6
		v-1.2v-2.7h1.8c1.2,0.1,1.8,0.8,1.9,1.9C188.2,103.9,188,104.3,187.6,104.7z M186.2,104.1c0.4,0,0.7-0.3,0.7-0.7
		c-0.1-0.4-0.3-0.7-0.7-0.7h-0.6v1.5H186.2z"/>
	<path class="st0" d="M211.7,107.9h-1.2c-0.1-0.3-0.1-0.5-0.2-0.8c-0.2-0.6-0.3-1.3-0.5-1.9c-0.3-1.2-0.6-2.5-0.9-3.8h1.1
		c0.3,1.5,0.7,3.1,1,4.6c0.2-0.8,0.3-1.6,0.5-2.3c0.2-0.8,0.3-1.5,0.5-2.3h1.2c-0.2,0.9-0.5,1.9-0.7,2.8
		C212.2,105.5,212,106.7,211.7,107.9z"/>
	<path class="st0" d="M217.6,101.4c1.2,0.1,1.8,0.8,1.9,1.9v4.7h-1.2v-2.1h-1.5v2.1h-1.2v-4.7C215.8,102.2,216.4,101.5,217.6,101.4z
		 M218.4,104.8v-1.4c-0.1-0.4-0.3-0.7-0.8-0.8c-0.4,0.1-0.7,0.3-0.7,0.8v1.4H218.4z"/>
	<path class="st0" d="M226,107.9h-3.8v-6.4h1.2v5.3h2.6V107.9z"/>
	<path class="st0" d="M238.6,103.4v2.7v0c-0.1,1.2-0.8,1.8-1.9,1.9h-1.8v-5.7v-0.8h1.8C237.9,101.6,238.5,102.2,238.6,103.4z
		 M237.4,106v-2.7c-0.1-0.4-0.3-0.7-0.7-0.7H236v4.1h0.7C237.1,106.7,237.3,106.5,237.4,106L237.4,106z"/>
	<path class="st0" d="M242.6,101.5v6.5h-1.2v-6.5H242.6z"/>
	<path class="st0" d="M255.5,101.5v1.2h-2.6v1.5h1.8v1.2h-1.8v2.6h-1.2v-6.5C251.8,101.5,255.5,101.5,255.5,101.5z"/>
	<path class="st0" d="M259.4,101.5v6.5h-1.2v-6.5H259.4z"/>
	<path class="st0" d="M266,102.6h-2.6v1.5h1.8v1.2h-1.8v1.5h2.6v1.2h-3.8v-6.5h3.8V102.6z"/>
	<path class="st0" d="M273.2,101.5l0,6.5h-1.2v-4.1c-0.4,0.6-0.7,1.2-1.1,1.9c-0.4-0.6-0.8-1.2-1.1-1.9v4.1h-1.1v-6.5h1
		c0.4,0.7,0.9,1.4,1.3,2c0.4-0.7,0.9-1.4,1.3-2C272.3,101.5,273.2,101.5,273.2,101.5z"/>
	<path class="st0" d="M280.5,101.5l0,6.5h-1.2v-4.1c-0.4,0.6-0.7,1.2-1.1,1.9c-0.4-0.6-0.8-1.2-1.1-1.9v4.1h-1.1v-6.5h1
		c0.4,0.7,0.9,1.4,1.3,2c0.4-0.7,0.9-1.4,1.3-2C279.5,101.5,280.5,101.5,280.5,101.5z"/>
	<path class="st0" d="M286.9,102.6h-2.6v1.5h1.8v1.2h-1.8v1.5h2.6v1.2h-3.8v-6.5h3.8V102.6z"/>
	<g>
		<circle class="st0" cx="71.4" cy="104.7" r="1.4"/>
	</g>
	<g>
		<circle class="st0" cx="198.7" cy="104.7" r="1.4"/>
	</g>
</g>
</svg>
